<svg width="79" height="17" viewBox="0 0 79 17" fill="none" xmlns="http://www.w3.org/2000/svg">
<path d="M0.632551 16H3.27519V9.80298H10.0349V16H12.6847V1.41208H10.0349V7.58773H3.27519V1.41208H0.632551V16ZM16.4478 16H19.0263V5.05906H16.4478V16ZM17.7442 3.50624C18.5633 3.50624 19.2329 2.87942 19.2329 2.11013C19.2329 1.33372 18.5633 0.706898 17.7442 0.706898C16.9179 0.706898 16.2483 1.33372 16.2483 2.11013C16.2483 2.87942 16.9179 3.50624 17.7442 3.50624ZM22.6808 16H25.2593V9.56792C25.2593 8.17894 26.3064 7.19596 27.7238 7.19596C28.1584 7.19596 28.6997 7.27431 28.9205 7.34554V4.97358C28.6855 4.93084 28.2794 4.90235 27.9945 4.90235C26.7409 4.90235 25.6938 5.61465 25.2949 6.88255H25.1809V5.05906H22.6808V16ZM36.0296 16.2137C38.5797 16.2137 40.3319 14.9672 40.7878 13.0653L38.3802 12.7946C38.0312 13.7206 37.1764 14.205 36.0653 14.205C34.3985 14.205 33.2944 13.1081 33.273 11.2347H40.8947V10.4441C40.8947 6.60475 38.5868 4.9166 35.8943 4.9166C32.7602 4.9166 30.7159 7.21733 30.7159 10.5936C30.7159 14.0269 32.7317 16.2137 36.0296 16.2137ZM33.2802 9.49669C33.3585 8.10058 34.3913 6.92529 35.9299 6.92529C37.4115 6.92529 38.4087 8.00798 38.423 9.49669H33.2802ZM50.1713 1.41208V16H52.7071V5.95656H52.8424L56.8741 15.9573H58.7688L62.8004 5.97792H62.9357V16H65.4715V1.41208H62.2377L57.9069 11.9826H57.7359L53.4052 1.41208H50.1713ZM74.0818 16.2137C76.6319 16.2137 78.3841 14.9672 78.84 13.0653L76.4324 12.7946C76.0834 13.7206 75.2286 14.205 74.1174 14.205C72.4507 14.205 71.3466 13.1081 71.3252 11.2347H78.9468V10.4441C78.9468 6.60475 76.639 4.9166 73.9465 4.9166C70.8124 4.9166 68.7681 7.21733 68.7681 10.5936C68.7681 14.0269 70.7839 16.2137 74.0818 16.2137ZM71.3323 9.49669C71.4107 8.10058 72.4435 6.92529 73.9821 6.92529C75.4637 6.92529 76.4609 8.00798 76.4752 9.49669H71.3323Z" fill="white"/>
</svg>
